<?xml version="1.0" encoding="UTF-8"?>
<svg xmlns="http://www.w3.org/2000/svg" xmlns:xlink="http://www.w3.org/1999/xlink" width="48px" height="48px" viewBox="0 0 48 47" version="1.1">
<g id="surface1">
<path style=" stroke:none;fill-rule:nonzero;fill:rgb(14.509804%,32.941176%,69.019608%);fill-opacity:1;" d="M 24 33.546875 C 21.160156 33.546875 18.613281 32.425781 16.75 30.601562 C 14.882812 28.816406 13.738281 26.28125 13.738281 23.5 C 13.738281 20.71875 14.882812 18.226562 16.75 16.398438 C 18.613281 14.574219 21.160156 13.453125 24 13.453125 C 26.839844 13.453125 29.425781 14.574219 31.25 16.398438 C 33.117188 18.226562 34.261719 20.71875 34.261719 23.5 C 34.261719 26.28125 33.117188 28.816406 31.25 30.601562 C 29.425781 32.425781 26.839844 33.546875 24 33.546875 Z M 17.851562 29.5625 C 19.421875 31.097656 21.582031 32.054688 24 32.054688 C 26.417969 32.054688 28.578125 31.097656 30.191406 29.5625 C 31.757812 27.984375 32.734375 25.867188 32.734375 23.5 C 32.734375 21.132812 31.757812 19.015625 30.191406 17.480469 C 28.578125 15.945312 26.417969 14.988281 24 14.988281 C 21.582031 14.988281 19.421875 15.945312 17.851562 17.480469 C 16.28125 19.015625 15.308594 21.132812 15.308594 23.5 C 15.308594 25.867188 16.28125 27.984375 17.851562 29.5625 Z M 17.851562 29.5625 "/>
<path style=" stroke:none;fill-rule:nonzero;fill:rgb(14.509804%,32.941176%,69.019608%);fill-opacity:1;" d="M 24 33.546875 C 22.09375 33.546875 20.394531 32.386719 19.167969 30.476562 C 18.0625 28.691406 17.34375 26.199219 17.34375 23.5 C 17.34375 20.800781 18.0625 18.351562 19.167969 16.523438 C 20.394531 14.613281 22.09375 13.453125 24 13.453125 C 25.90625 13.453125 27.648438 14.613281 28.832031 16.523438 C 29.980469 18.351562 30.65625 20.800781 30.65625 23.5 C 30.65625 26.199219 29.980469 28.691406 28.832031 30.476562 C 27.648438 32.386719 25.90625 33.546875 24 33.546875 Z M 20.523438 29.6875 C 21.414062 31.140625 22.683594 32.054688 24 32.054688 C 25.355469 32.054688 26.585938 31.140625 27.519531 29.6875 C 28.496094 28.109375 29.128906 25.949219 29.128906 23.5 C 29.128906 21.09375 28.496094 18.890625 27.519531 17.355469 C 26.585938 15.859375 25.355469 14.988281 24 14.988281 C 22.683594 14.988281 21.414062 15.859375 20.523438 17.355469 C 19.503906 18.890625 18.910156 21.09375 18.910156 23.5 C 18.910156 25.949219 19.503906 28.109375 20.523438 29.6875 Z M 20.523438 29.6875 "/>
<path style=" stroke:none;fill-rule:nonzero;fill:rgb(14.509804%,32.941176%,69.019608%);fill-opacity:1;" d="M 24.804688 14.199219 L 24.804688 32.800781 L 23.238281 32.800781 L 23.238281 14.199219 Z M 24.804688 14.199219 "/>
<path style=" stroke:none;fill-rule:nonzero;fill:rgb(14.509804%,32.941176%,69.019608%);fill-opacity:1;" d="M 33.5 24.289062 L 14.5 24.289062 L 14.5 22.753906 L 33.5 22.753906 Z M 33.5 24.289062 "/>
<path style=" stroke:none;fill-rule:nonzero;fill:rgb(14.509804%,32.941176%,69.019608%);fill-opacity:1;" d="M 31.84375 18.394531 C 30.871094 18.972656 29.683594 19.429688 28.324219 19.761719 C 27.011719 20.054688 25.527344 20.21875 24 20.21875 C 22.515625 20.21875 21.03125 20.054688 19.71875 19.761719 C 18.359375 19.429688 17.128906 18.972656 16.15625 18.394531 L 16.960938 17.105469 C 17.808594 17.605469 18.871094 17.976562 20.054688 18.269531 C 21.285156 18.558594 22.601562 18.726562 24 18.726562 C 25.398438 18.726562 26.757812 18.558594 27.945312 18.269531 C 29.171875 17.976562 30.234375 17.605469 31.039062 17.105469 Z M 31.84375 18.394531 "/>
<path style=" stroke:none;fill-rule:nonzero;fill:rgb(27.843137%,61.568627%,100%);fill-opacity:1;" d="M 34.429688 18.890625 C 34.007812 18.808594 33.753906 18.394531 33.835938 17.976562 C 33.921875 17.5625 34.347656 17.3125 34.769531 17.398438 C 35.320312 17.519531 35.832031 17.730469 36.167969 17.976562 C 36.636719 18.226562 36.933594 18.601562 37.058594 19.015625 C 37.570312 20.386719 36.425781 22.089844 34.175781 23.75 C 32.140625 25.242188 29.171875 26.78125 25.695312 28.027344 C 22.21875 29.269531 18.953125 29.976562 16.410156 30.144531 C 13.570312 30.269531 11.574219 29.6875 11.066406 28.316406 C 10.941406 27.941406 10.898438 27.527344 11.023438 27.070312 C 11.109375 26.65625 11.320312 26.242188 11.660156 25.824219 C 11.871094 25.492188 12.382812 25.410156 12.722656 25.660156 C 13.058594 25.867188 13.144531 26.363281 12.890625 26.695312 C 12.722656 26.945312 12.59375 27.195312 12.550781 27.445312 C 12.507812 27.570312 12.507812 27.695312 12.550781 27.816406 C 12.761719 28.480469 14.203125 28.730469 16.324219 28.605469 C 18.699219 28.480469 21.835938 27.816406 25.1875 26.613281 C 28.496094 25.410156 31.335938 23.957031 33.242188 22.546875 C 34.941406 21.300781 35.871094 20.179688 35.617188 19.554688 C 35.574219 19.429688 35.492188 19.347656 35.320312 19.222656 C 35.109375 19.097656 34.8125 18.972656 34.429688 18.890625 Z M 34.429688 18.890625 "/>
</g>
</svg>
